# xmcd
#
# Track frame offsets:
#	150
#	13291
#	29922
#	51466
#	67525
#	97130
#	112191
#	122675
#	144694
#	163219
#	174319
#	189711
#
# Disc length: 2885 seconds
#
# Revision: 0
# Processed by: cddbd v1.5.1PL0 Copyright (c) Steve Scherf et al.
# Submitted via: EasyCDDAExtractor 7.5.2.1
#
DISCID=b70b430c
DTITLE=Mary Flower - Ragtime Gal
DYEAR=2003
DGENRE=Blues
TTITLE0=River of Joy
TTITLE1=Hobo's Hop
TTITLE2=Mood Indigo
TTITLE3=Monon Blues
TTITLE4=Keep Your Lamp Trimmed and Burning
TTITLE5=Ragtime Gal
TTITLE6=Wrap Your Troubles in Dreams
TTITLE7=Three Sisters' Waltz
TTITLE8=Monday Morning Blues
TTITLE9=Maplewood
TTITLE10=Arkansas Ramble
TTITLE11=Dink's Song
EXTD=
EXTT0=
EXTT1=
EXTT2=
EXTT3=
EXTT4=
EXTT5=
EXTT6=
EXTT7=
EXTT8=
EXTT9=
EXTT10=
EXTT11=
PLAYORDER=
